<?xml version="1.0" encoding="utf-8"?>
<!-- Generator: Adobe Illustrator 16.0.0, SVG Export Plug-In . SVG Version: 6.00 Build 0)  -->
<!DOCTYPE svg PUBLIC "-//W3C//DTD SVG 1.0//EN" "http://www.w3.org/TR/2001/REC-SVG-20010904/DTD/svg10.dtd">
<svg version="1.0" id="Layer_1" xmlns="http://www.w3.org/2000/svg" xmlns:xlink="http://www.w3.org/1999/xlink" x="0px" y="0px"
	 width="100px" height="100px" viewBox="0 0 100 100" enable-background="new 0 0 100 100" xml:space="preserve">
<path fill="#D2C9B6" d="M89.909,48.199C87.962,49.313,85.734,50,83.333,50c-5.286,0-9.812-3.104-11.97-7.563
	c-1.465,0.554-3.036,0.896-4.696,0.896c-7.36,0-13.334-5.97-13.334-13.333c0-3.287,1.237-6.259,3.213-8.584
	C52.645,19.09,50,14.873,50,10c-22.09,0-40,17.91-40,40c0,22.092,17.91,40,40,40c22.093,0,40-17.908,40-40
	C90,49.393,89.936,48.8,89.909,48.199z M50,83.332c-18.379,0-33.334-14.953-33.334-33.332c0-16.553,12.13-30.326,27.963-32.9
	c0.794,2.09,1.943,4.027,3.398,5.74c-0.893,2.278-1.36,4.707-1.36,7.16c0,11.027,8.972,20,20,20c0.571,0,1.147-0.025,1.726-0.08
	c3.588,4.09,8.69,6.555,14.273,6.736C79.572,71.857,66.102,83.332,50,83.332z"/>
<circle fill="#F06292" cx="65" cy="65" r="5"/>
<circle fill="#F06292" cx="45" cy="71.666" r="5"/>
<circle fill="#F06292" cx="48.333" cy="55" r="5"/>
<circle fill="#F06292" cx="35" cy="35" r="5"/>
<circle fill="#F06292" cx="28.333" cy="51.666" r="5"/>
</svg>
